<?xml version="1.0" standalone="no"?>
<!DOCTYPE svg PUBLIC "-//W3C//DTD SVG 20010904//EN"
 "http://www.w3.org/TR/2001/REC-SVG-20010904/DTD/svg10.dtd">
<svg version="1.0" xmlns="http://www.w3.org/2000/svg"
 width="103.000000pt" height="103.000000pt" viewBox="0 0 103.000000 103.000000"
 preserveAspectRatio="xMidYMid meet">

<g transform="translate(0.000000,103.000000) scale(0.100000,-0.100000)"
fill="#000000" stroke="none">
<path d="M428 975 c-6 -14 -14 -25 -17 -25 -3 0 -15 -7 -25 -15 -18 -14 -17
-16 23 -55 l43 -42 39 39 39 39 -39 42 c-22 23 -43 42 -46 42 -3 0 -11 -11
-17 -25z m41 -49 c9 -10 8 -16 -4 -26 -21 -17 -51 6 -34 26 6 8 15 14 19 14 4
0 13 -6 19 -14z"/>
<path d="M782 946 c-85 -28 -100 -64 -61 -153 29 -66 50 -254 58 -511 6 -209
7 -214 30 -233 30 -24 56 -24 81 1 19 19 20 34 20 203 0 100 5 200 10 222 5
22 13 85 16 140 5 76 14 118 36 174 18 45 27 84 23 98 -12 50 -135 84 -213 59z
m148 -41 c15 -8 30 -20 32 -27 3 -7 -7 -41 -20 -75 -18 -43 -31 -63 -43 -63
-14 0 -16 5 -9 35 8 34 -1 52 -19 41 -5 -3 -12 -23 -16 -43 l-8 -38 -9 43 c-6
28 -14 42 -25 42 -13 0 -14 -8 -9 -40 14 -89 -52 -13 -71 81 -4 21 1 28 29 42
41 21 130 22 168 2z m-20 -245 c0 -49 -1 -50 -30 -50 -20 0 -30 -5 -30 -15 0
-10 10 -15 26 -15 26 0 26 0 19 -57 -4 -32 -9 -61 -12 -65 -2 -5 -19 -8 -38
-8 l-33 0 -11 68 c-5 37 -13 95 -17 130 l-6 62 66 0 66 0 0 -50z m-30 -410 c0
-153 -2 -170 -18 -179 -40 -22 -47 -1 -50 165 -2 86 -1 162 2 170 3 8 19 14
36 14 l30 0 0 -170z"/>
<path d="M519 810 l-36 -36 39 -43 40 -42 39 39 c46 46 47 55 15 70 -13 6 -27
20 -31 31 -9 29 -24 24 -66 -19z m60 -56 c-14 -14 -17 -14 -29 0 -10 13 -10
19 0 32 12 14 15 14 29 0 14 -15 14 -17 0 -32z"/>
<path d="M348 716 c-21 -21 -38 -41 -38 -43 0 -5 71 -73 76 -73 2 0 21 17 43
38 l38 37 -41 41 -41 40 -37 -40z m54 -58 c-17 -17 -47 9 -30 29 10 12 13 12
27 -1 11 -12 12 -19 3 -28z"/>
<path d="M608 514 c-5 -4 -8 -46 -8 -94 0 -47 -5 -91 -10 -96 -7 -7 -10 -64
-8 -150 l3 -139 75 0 75 0 3 139 c2 86 -1 143 -8 150 -5 5 -10 42 -10 81 0 58
-4 75 -19 89 -21 19 -82 32 -93 20z m60 -40 c19 -13 22 -24 22 -85 l0 -69 -30
0 -30 0 0 85 c0 47 3 85 8 85 4 0 18 -7 30 -16z m42 -199 c0 -11 -12 -15 -50
-15 -38 0 -50 4 -50 15 0 11 12 15 50 15 38 0 50 -4 50 -15z m-5 -130 l0 -80
-45 0 -45 0 -3 69 c-4 93 -1 98 50 94 l43 -3 0 -80z"/>
<path d="M195 493 c-100 -52 -146 -153 -122 -265 8 -36 7 -38 -19 -38 -25 0
-26 -2 -21 -37 8 -48 34 -83 78 -105 28 -15 61 -18 179 -18 118 0 151 3 179
18 45 22 72 61 74 103 2 27 -2 35 -19 37 -19 3 -20 8 -16 81 3 60 1 85 -13
112 -24 47 -63 87 -107 110 -47 24 -150 25 -193 2z m183 -34 c55 -27 93 -84
100 -148 6 -62 -13 -121 -38 -121 -18 0 -18 2 -3 37 19 46 13 115 -14 151 -38
51 -70 67 -133 67 -63 0 -95 -16 -133 -67 -27 -36 -33 -105 -14 -151 15 -35
15 -37 -2 -37 -42 0 -56 122 -21 190 46 90 161 126 258 79z m-114 -51 c-4 -7
-28 -40 -53 -73 -34 -44 -47 -55 -49 -42 -6 29 32 89 68 109 41 21 43 22 34 6z
m79 -12 c-21 -35 -146 -186 -154 -186 -22 0 -5 36 57 119 51 67 71 87 85 84
11 -3 16 -10 12 -17z m54 -34 c10 -16 3 -30 -48 -95 -51 -66 -64 -77 -90 -77
-21 0 -28 4 -23 13 15 25 137 177 143 177 3 0 11 -8 18 -18z m5 -130 c-11 -22
-27 -38 -40 -40 -30 -5 -28 3 16 60 42 56 57 43 24 -20z m-205 -102 c11 -30
12 -30 86 -30 78 0 114 16 103 46 -4 11 9 14 59 14 56 0 65 -2 65 -18 0 -10
-14 -31 -31 -48 l-30 -29 -159 0 -159 0 -30 29 c-17 17 -31 38 -31 48 0 15 9
18 58 18 55 0 58 -1 69 -30z m153 15 c0 -12 -13 -15 -60 -15 -47 0 -60 3 -60
15 0 12 13 15 60 15 47 0 60 -3 60 -15z"/>
</g>
</svg>
