<?xml version="1.0" standalone="no"?>
<!DOCTYPE svg PUBLIC "-//W3C//DTD SVG 20010904//EN"
 "http://www.w3.org/TR/2001/REC-SVG-20010904/DTD/svg10.dtd">
<svg version="1.0" xmlns="http://www.w3.org/2000/svg"
 width="118.000000pt" height="119.000000pt" viewBox="0 0 118.000000 119.000000"
 preserveAspectRatio="xMidYMid meet">

<g transform="translate(0.000000,119.000000) scale(0.100000,-0.100000)"
fill="#000000" stroke="none">
<path d="M395 1035 c-326 -60 -352 -66 -372 -90 -27 -31 -29 -62 -7 -93 32
-46 43 -45 408 33 194 42 369 75 400 75 75 0 145 -16 249 -58 66 -26 91 -32
100 -23 15 15 -98 129 -163 165 -60 33 -151 56 -215 55 -27 0 -207 -29 -400
-64z m557 -8 c47 -22 130 -77 117 -77 -3 0 -32 9 -65 21 -32 11 -97 23 -144
26 -79 5 -110 0 -411 -65 -179 -39 -337 -74 -351 -77 -26 -7 -58 15 -58 38 1
34 28 41 361 103 392 72 456 76 551 31z"/>
<path d="M927 903 c-4 -3 -7 -61 -7 -128 l0 -122 -54 -59 c-108 -119 -264
-168 -428 -133 -81 17 -141 53 -210 123 -64 65 -94 86 -122 86 -31 0 -17 -36
20 -49 46 -17 63 -51 41 -85 -9 -13 -26 -27 -37 -31 -23 -7 -27 -45 -5 -45 8
0 33 16 55 36 l41 37 24 -23 c20 -19 22 -26 12 -49 -6 -14 -22 -41 -35 -59
-22 -31 -23 -35 -9 -49 14 -14 19 -11 46 32 17 27 33 57 36 66 6 17 8 17 40 2
30 -14 33 -19 28 -47 -3 -17 -12 -48 -19 -68 -11 -31 -10 -37 3 -42 8 -3 16
-6 18 -6 6 0 34 84 37 110 3 26 14 28 76 14 22 -4 23 -9 20 -72 -2 -54 0 -67
12 -67 11 0 17 18 24 68 l9 67 33 0 c32 0 33 -1 39 -57 8 -74 12 -86 28 -80 8
3 11 25 10 75 -3 69 -3 70 26 80 29 10 29 10 50 -49 23 -63 31 -72 54 -63 12
4 11 14 -9 62 -30 72 -30 74 6 94 28 16 29 16 35 -3 8 -23 63 -89 75 -89 20 0
17 32 -6 57 -40 43 -40 66 -2 113 l33 42 5 -253 5 -254 78 -3 77 -3 0 380 0
381 -70 35 c-77 39 -74 38 -83 28z m83 -68 c44 -23 39 -45 -10 -45 -38 0 -40
2 -40 30 0 34 9 36 50 15z m30 -105 c0 -17 -7 -20 -40 -20 -33 0 -40 3 -40 20
0 17 7 20 40 20 33 0 40 -3 40 -20z m0 -335 l0 -275 -40 0 -40 0 0 275 0 275
40 0 40 0 0 -275z"/>
</g>
</svg>
