<?xml version="1.0" standalone="no"?>
<!DOCTYPE svg PUBLIC "-//W3C//DTD SVG 20010904//EN"
 "http://www.w3.org/TR/2001/REC-SVG-20010904/DTD/svg10.dtd">
<svg version="1.0" xmlns="http://www.w3.org/2000/svg"
 width="112.000000pt" height="112.000000pt" viewBox="0 0 112.000000 112.000000"
 preserveAspectRatio="xMidYMid meet">

<g transform="translate(0.000000,112.000000) scale(0.100000,-0.100000)"
fill="#000000" stroke="none">
<path d="M434 990 c-77 -35 -124 -111 -143 -230 -12 -73 -6 -126 21 -188 10
-24 18 -61 18 -81 0 -24 9 -52 25 -75 36 -53 38 -74 16 -140 -20 -55 -20 -83
-1 -71 5 3 16 28 25 55 18 53 25 59 45 35 7 -8 9 -15 4 -15 -14 0 41 -52 76
-71 19 -11 47 -29 62 -41 20 -16 53 -25 125 -34 54 -7 107 -14 118 -16 29 -5
32 35 4 63 -18 18 -29 21 -73 16 -40 -5 -56 -2 -75 12 -21 16 -23 23 -17 65 6
39 10 46 24 41 9 -4 50 -9 89 -12 65 -5 73 -4 78 13 3 10 15 37 26 59 11 23
22 58 26 78 4 28 10 37 25 37 30 0 32 27 4 83 -22 44 -26 64 -24 127 1 81 -18
135 -62 175 -12 11 -31 38 -41 60 -30 63 -46 69 -200 71 -112 2 -143 -1 -175
-16z m111 -27 c-4 -10 -15 -38 -24 -63 -9 -25 -21 -49 -27 -55 -19 -17 -51
-69 -59 -95 -4 -14 -21 -44 -37 -66 -17 -23 -32 -60 -35 -84 -5 -38 -7 -41
-19 -25 -42 57 -37 201 11 294 39 77 85 109 159 110 33 1 37 -2 31 -16z m218
-15 l32 -33 -46 -5 c-43 -5 -119 -49 -119 -69 0 -4 -16 -25 -36 -45 -43 -44
-54 -37 -54 37 0 100 44 144 148 146 36 1 49 -4 75 -31z m33 -83 c14 -37 -58
-77 -120 -66 l-39 6 42 38 c31 28 50 37 76 37 23 0 38 -6 41 -15z m82 -100
c14 -59 5 -115 -19 -115 -10 0 -19 -7 -19 -15 0 -8 8 -15 18 -15 10 0 28 -20
45 -50 l28 -49 -26 -7 c-17 -4 -25 -13 -25 -28 0 -13 -3 -26 -7 -30 -5 -4 -8
-15 -9 -24 0 -10 -9 -36 -20 -59 -21 -48 -34 -51 -125 -32 -61 13 -73 4 -84
-62 -4 -21 -11 -39 -17 -39 -6 0 -7 7 -3 18 24 55 18 105 -18 149 -13 15 -27
42 -30 58 -3 17 -8 37 -12 47 -4 11 3 21 23 34 28 16 72 79 72 102 0 6 14 24
30 40 17 17 30 39 30 50 0 14 10 24 35 32 19 6 47 26 62 44 l28 33 17 -21 c9
-11 21 -39 26 -61z m-362 -63 c-7 -20 -11 -42 -9 -49 4 -10 -53 -30 -62 -21
-9 8 22 127 40 154 l18 28 13 -37 c11 -30 11 -44 0 -75z m164 50 c0 -32 -29
-61 -68 -67 -20 -4 -45 -9 -54 -12 -41 -11 2 69 46 87 38 16 76 12 76 -8z
m-264 -124 c-1 -15 6 -24 23 -28 l24 -5 -28 -33 c-15 -17 -31 -32 -36 -32 -12
0 -11 77 1 101 14 25 17 24 16 -3z m197 2 c-5 -20 -67 -80 -81 -80 -16 1 -51
36 -44 45 12 17 86 54 109 55 16 0 20 -4 16 -20z m-104 -106 c31 -39 34 -61
13 -82 -11 -11 -22 -26 -24 -33 -4 -10 -15 -6 -44 17 -44 36 -47 63 -11 100
29 29 42 29 66 -2z m-125 -56 c9 -36 7 -41 -9 -28 -16 13 -21 50 -6 50 5 0 11
-10 15 -22z m114 -135 c13 -41 1 -43 -45 -7 -35 26 -58 68 -47 85 10 17 82
-44 92 -78z m77 51 c25 -27 35 -96 16 -108 -16 -10 -71 63 -71 93 0 49 19 54
55 15z m-23 -125 c15 -8 17 -13 8 -19 -16 -10 -46 -2 -61 16 -9 11 -7 14 10
14 12 0 32 -5 43 -11z m99 -69 l24 -19 -26 -1 c-15 0 -37 9 -50 20 l-24 19 26
1 c15 0 37 -9 50 -20z m142 -27 c-7 -2 -21 -2 -30 0 -10 3 -4 5 12 5 17 0 24
-2 18 -5z"/>
<path d="M240 930 c0 -5 5 -10 10 -10 6 0 10 5 10 10 0 6 -4 10 -10 10 -5 0
-10 -4 -10 -10z"/>
<path d="M165 577 c2 -27 6 -32 33 -33 28 -1 30 1 30 31 0 31 -2 33 -33 33
-30 0 -32 -2 -30 -31z"/>
<path d="M223 413 c-21 -8 -16 -61 7 -73 27 -15 60 4 60 33 0 38 -29 56 -67
40z m37 -38 c0 -8 -4 -15 -10 -15 -5 0 -10 7 -10 15 0 8 5 15 10 15 6 0 10 -7
10 -15z"/>
</g>
</svg>
