<?xml version="1.0" standalone="no"?>
<!DOCTYPE svg PUBLIC "-//W3C//DTD SVG 20010904//EN"
 "http://www.w3.org/TR/2001/REC-SVG-20010904/DTD/svg10.dtd">
<svg version="1.0" xmlns="http://www.w3.org/2000/svg"
 width="97.000000pt" height="92.000000pt" viewBox="0 0 97.000000 92.000000"
 preserveAspectRatio="xMidYMid meet">

<g transform="translate(0.000000,92.000000) scale(0.100000,-0.100000)"
fill="#000000" stroke="none">
<path d="M694 875 c-22 -47 -85 -100 -143 -120 -25 -9 -96 -27 -158 -40 -61
-13 -128 -31 -147 -40 -92 -44 -140 -164 -105 -264 6 -18 49 -78 96 -134 94
-114 116 -163 92 -206 -8 -14 -29 -30 -47 -36 -35 -10 -43 -25 -13 -25 27 0
78 45 85 76 10 38 -31 117 -107 205 -89 103 -100 128 -95 204 4 72 36 128 87
158 l31 18 0 -129 c0 -189 8 -211 128 -328 136 -132 180 -141 277 -57 27 23
53 43 57 43 5 0 8 -21 8 -47 0 -48 48 -170 57 -146 2 6 -5 30 -17 52 -11 22
-23 68 -27 101 -5 54 -4 63 17 85 13 14 21 27 19 29 -3 3 -44 -31 -92 -74 -81
-74 -91 -80 -131 -80 -41 0 -49 5 -141 93 -130 122 -135 133 -135 318 l0 146
113 22 c117 23 206 57 244 93 26 24 27 24 136 -66 l67 -56 2 -128 2 -127 6
115 5 115 18 -39 c34 -71 36 -125 13 -246 l-7 -35 17 29 c22 39 29 141 14 204
-20 83 -80 153 -215 248 -19 14 -19 14 3 59 12 25 18 45 12 45 -5 0 -17 -16
-26 -35z"/>
<path d="M597 883 c-4 -3 -7 -11 -7 -17 0 -6 5 -5 12 2 6 6 9 14 7 17 -3 3 -9
2 -12 -2z"/>
<path d="M152 822 c-21 -49 -28 -94 -22 -147 2 -18 6 -3 10 36 3 36 16 85 28
108 25 47 26 51 13 51 -5 0 -18 -21 -29 -48z"/>
<path d="M530 821 c-14 -10 -38 -22 -55 -26 -26 -8 -27 -9 -8 -12 24 -5 103
32 103 47 0 14 -12 12 -40 -9z"/>
<path d="M171 686 c-6 -16 -10 -34 -8 -40 3 -6 10 2 16 18 6 16 10 34 8 40 -3
6 -10 -2 -16 -18z"/>
<path d="M338 654 c-38 -11 -15 -19 43 -16 51 3 67 0 90 -17 33 -25 39 -14 9
14 -20 18 -105 29 -142 19z"/>
<path d="M668 644 c-16 -8 -28 -22 -28 -31 0 -14 4 -12 24 6 21 20 33 22 85
19 59 -3 78 3 45 16 -28 11 -98 6 -126 -10z"/>
<path d="M320 540 c-15 -10 -8 -14 22 -11 11 2 16 -3 13 -11 -4 -10 11 -14 59
-16 36 -1 67 2 71 8 4 6 -8 9 -32 8 -21 0 -52 6 -70 15 -37 20 -43 20 -63 7z"/>
<path d="M751 534 c-14 -10 -42 -16 -69 -16 -34 1 -42 -2 -31 -8 9 -5 44 -9
77 -7 51 2 58 4 49 16 -10 12 -7 13 16 9 29 -6 37 6 11 16 -23 9 -27 8 -53
-10z"/>
<path d="M776 459 c-51 -14 -96 -71 -96 -122 0 -21 7 -25 58 -36 67 -15 89
-28 160 -94 29 -28 55 -47 59 -43 4 3 -15 26 -43 50 -42 38 -46 45 -31 51 13
5 27 -1 48 -21 16 -15 29 -23 29 -18 0 5 -22 32 -50 59 -37 37 -55 64 -71 112
-11 34 -24 64 -27 66 -4 3 -20 1 -36 -4z m48 -65 c10 -31 15 -58 12 -62 -3 -3
-6 2 -6 11 0 9 -5 19 -12 23 -8 5 -9 -2 -5 -24 8 -39 0 -44 -46 -31 -39 11
-43 18 -26 50 6 11 8 25 6 32 -2 7 -12 -5 -22 -25 -21 -42 -36 -51 -27 -15 12
47 60 95 98 97 6 0 18 -25 28 -56z m52 -113 c-9 -13 -16 -14 -35 -2 -12 8 -13
12 -1 26 12 14 15 14 28 1 8 -8 11 -19 8 -25z"/>
<path d="M532 369 c6 -18 42 -23 65 -10 15 9 13 10 -12 9 -17 -1 -37 2 -44 6
-9 6 -12 4 -9 -5z"/>
<path d="M7 303 c12 -36 50 -66 130 -103 91 -43 133 -80 133 -118 0 -18 3 -23
11 -15 16 16 0 61 -35 90 -17 14 -68 43 -114 64 -60 28 -87 47 -100 69 -18 32
-35 41 -25 13z"/>
<path d="M502 295 l-27 -24 26 -26 c19 -20 37 -27 63 -27 44 0 86 25 86 51 0
49 -102 66 -148 26z m116 -7 c19 -19 14 -34 -13 -46 -37 -17 -59 -15 -86 8
-24 20 -24 20 -5 35 24 18 87 20 104 3z"/>
</g>
</svg>
