<?xml version="1.0" encoding="iso-8859-1"?>
<!-- Generator: Adobe Illustrator 19.0.0, SVG Export Plug-In . SVG Version: 6.00 Build 0)  -->
<svg version="1.1" id="Layer_1" xmlns="http://www.w3.org/2000/svg" xmlns:xlink="http://www.w3.org/1999/xlink" x="0px" y="0px"
	 viewBox="0 0 503.322 503.322" style="enable-background:new 0 0 503.322 503.322;" xml:space="preserve">
<g transform="translate(1 1)">
	<g>
		<g>
			<path d="M419.881,170.55v-41.38c0-5.207-3.471-8.678-8.678-8.678H307.068c-5.207,0-8.678,3.471-8.678,8.678v41.38
				c-34.517,8.106-60.746,23.473-60.746,45.399v17.356v208.271v8.678c0,33.844,62.481,52.068,121.492,52.068
				c59.01,0,121.492-18.224,121.492-52.068V215.949C480.627,194.023,454.398,178.656,419.881,170.55z M315.746,137.847h86.78v29.336
				c-2.807-0.438-5.645-0.832-8.507-1.184c-10.074-1.375-20.49-1.974-30.952-2.088c-1.311-0.018-2.622-0.03-3.931-0.03
				s-2.619,0.012-3.931,0.03c-10.462,0.114-20.878,0.713-30.953,2.088c-2.862,0.352-5.7,0.745-8.506,1.183V137.847z M255,389.508
				h86.78c5.207,0,8.678-3.471,8.678-8.678s-3.471-8.678-8.678-8.678H255v-26.034h69.424c5.207,0,8.678-3.471,8.678-8.678
				s-3.471-8.678-8.678-8.678H255v-26.034h43.39c5.207,0,8.678-3.471,8.678-8.678s-3.471-8.678-8.678-8.678H255v-34.712h137.112
				c0.868,0,1.736,0.868,1.736,1.736v170.088c0,0.868-0.868,1.736-1.736,1.736H255V389.508z M463.271,450.254
				c0,14.753-39.919,34.712-104.136,34.712S255,465.007,255,450.254v-8.678h137.112c10.414,0,19.091-8.678,19.091-19.091V252.397
				c0-10.414-8.678-19.091-19.091-19.091H255v-17.356c0-10.007,18.373-22.408,50.233-29.352c1.132,0.267,2.349,0.254,3.57-0.153
				c31.241-6.075,69.424-6.075,100.664,0c0.868,0,0.868,0,1.736,0c0.262,0,0.548-0.025,0.841-0.062
				c32.473,6.901,51.227,19.456,51.227,29.567V450.254z"/>
			<path d="M149.997,302.729h-16.488v-34.712c0-5.207-3.471-8.678-8.678-8.678H98.797V68.424h4.339
				c6.942,0,12.149-4.339,13.885-11.281l6.942-41.654c0-4.339-0.868-7.81-3.471-11.281S114.417-1,110.078-1H70.159
				c-3.471,0-7.81,1.736-10.414,5.207s-3.471,6.942-3.471,11.281l6.942,41.654c0.868,6.075,6.942,11.281,13.885,11.281h4.339
				v190.915H55.407c-5.207,0-8.678,3.471-8.678,8.678v34.712H28.505c-1.736,0-5.207,0.868-6.075,2.603s-1.736,4.339-1.736,6.942
				L40.654,475.42c2.603,15.62,14.753,26.902,30.373,26.902h39.919c15.62,0,28.637-11.281,28.637-26.902l18.224-163.146
				c0.868-2.603,0-5.207-1.736-6.942C155.203,303.597,152.6,302.729,149.997,302.729z M74.498,16.356h31.241l-6.075,34.712H79.705
				L74.498,16.356z M64.085,276.695h52.068v26.034H64.085V276.695z M123.963,473.685c-0.868,6.075-6.075,11.281-13.017,11.281
				H71.027c-6.942,0-12.149-5.207-13.017-11.281l-19.092-153.6h16.488h69.424h16.488L123.963,473.685z"/>
		</g>
	</g>
</g>
<g>
</g>
<g>
</g>
<g>
</g>
<g>
</g>
<g>
</g>
<g>
</g>
<g>
</g>
<g>
</g>
<g>
</g>
<g>
</g>
<g>
</g>
<g>
</g>
<g>
</g>
<g>
</g>
<g>
</g>
</svg>
