<?xml version="1.0" encoding="iso-8859-1"?>
<!-- Generator: Adobe Illustrator 19.0.0, SVG Export Plug-In . SVG Version: 6.00 Build 0)  -->
<svg version="1.1" id="Layer_1" xmlns="http://www.w3.org/2000/svg" xmlns:xlink="http://www.w3.org/1999/xlink" x="0px" y="0px"
	 viewBox="0 0 496.304 496.304" style="enable-background:new 0 0 496.304 496.304;" xml:space="preserve">
<g>
	<g>
		<g>
			<path d="M112.304,0.152c-72.576,0-108.032,32.8-109.496,34.192L0,37l32.304,371.512v87.64h160v-87.64l32.304-371.52l-2.8-2.648
				C220.336,32.952,184.88,0.152,112.304,0.152z M176.304,480.152h-128v-16h128V480.152z M98.536,448.152
				c2.776-4.76,7.88-8,13.776-8s10.992,3.24,13.768,8H98.536z M176.304,448.152h-33.136c-3.576-13.768-15.992-24-30.864-24
				s-27.288,10.232-30.864,24H48.304v-32h128V448.152z M183.224,328.152h-14.92v16h13.536l-4.872,56H47.64l-4.872-56h109.536v-16
				H41.376l-19.472-224h180.8L183.224,328.152z M204.096,88.152H20.512L16.64,43.656c9.232-7.016,40.88-27.504,95.664-27.504
				c54.816,0,86.464,20.504,95.664,27.504L204.096,88.152z"/>
			<path d="M80.304,184.152h24v72h16v-72h24c22.056,0,40-17.944,40-40v-8h-40c-13.128,0-24.704,6.448-32,16.248
				c-7.296-9.8-18.872-16.248-32-16.248h-40v8C40.304,166.208,58.248,184.152,80.304,184.152z M144.304,152.152h22.632
				c-3.304,9.312-12.2,16-22.632,16h-22.632C124.976,158.84,133.872,152.152,144.304,152.152z M80.304,152.152
				c10.432,0,19.328,6.688,22.632,16H80.304c-10.432,0-19.328-6.688-22.632-16H80.304z"/>
			<path d="M240.304,0.152v376c0,19.312,13.768,35.472,32,39.192v80.808h192v-80.808c18.232-3.72,32-19.88,32-39.192v-376H240.304z
				 M448.304,480.152h-160v-16h160V480.152z M354.536,448.152c2.776-4.76,7.88-8,13.776-8s10.992,3.24,13.768,8H354.536z
				 M448.304,448.152h-49.136c-3.576-13.768-15.992-24-30.864-24s-27.288,10.232-30.864,24h-49.136v-32h160V448.152z
				 M480.304,312.152h-16v16h16v48c0,13.232-10.768,24-24,24h-176c-13.232,0-24-10.768-24-24v-48h192v-16h-192v-224h224V312.152z
				 M480.304,72.152h-224v-56h224V72.152z"/>
			<path d="M368.304,296.152c52.936,0,96-43.064,96-96c0-52.936-43.064-96-96-96c-52.936,0-96,43.064-96,96
				C272.304,253.088,315.368,296.152,368.304,296.152z M368.304,120.152c44.112,0,80,35.888,80,80s-35.888,80-80,80
				s-80-35.888-80-80S324.192,120.152,368.304,120.152z"/>
			<path d="M344.304,216.152h16v40h16v-40h16c22.056,0,40-17.944,40-40v-8h-32c-13.128,0-24.704,6.448-32,16.248
				c-7.296-9.8-18.872-16.248-32-16.248h-32v8C304.304,198.208,322.248,216.152,344.304,216.152z M400.304,184.152h14.632
				c-3.304,9.312-12.2,16-22.632,16h-14.632C380.976,190.84,389.872,184.152,400.304,184.152z M336.304,184.152
				c10.432,0,19.328,6.688,22.632,16h-14.632c-10.432,0-19.328-6.688-22.632-16H336.304z"/>
		</g>
	</g>
</g>
<g>
</g>
<g>
</g>
<g>
</g>
<g>
</g>
<g>
</g>
<g>
</g>
<g>
</g>
<g>
</g>
<g>
</g>
<g>
</g>
<g>
</g>
<g>
</g>
<g>
</g>
<g>
</g>
<g>
</g>
</svg>
